<svg width="900" height="211" xmlns="http://www.w3.org/2000/svg" version="1.1">

 <g>
  <title>Layer 1</title>
  <rect id="svg_1" fill="#3B28CC" height="450" width="938.00004" y="-102" x="-14"/>
  <path id="svg_2" fill="#2667ff" d="m0,25l25,7.7c25,7.6 75,23 125,26.6c50,3.7 100,-4.3 150,-15.1c50,-10.9 100,-24.5 150,-26.5c50,-2 100,7.6 150,22c50,14.3 100,33.3 150,28.6c50,-4.6 100,-33 125,-47.1l25,-14.2l0,208l-25,0c-25,0 -75,0 -125,0c-50,0 -100,0 -150,0c-50,0 -100,0 -150,0c-50,0 -100,0 -150,0c-50,0 -100,0 -150,0c-50,0 -100,0 -125,0l-25,0l0,-190z"/>
  <path id="svg_3" fill="#7985ff" d="m0,46l25,12.5c25,12.5 75,37.5 125,49.8c50,12.4 100,12 150,4c50,-8 100,-23.6 150,-29.3c50,-5.7 100,-1.3 150,-0.2c50,1.2 100,-0.8 150,4.9c50,5.6 100,19 125,25.6l25,6.7l0,95l-25,0c-25,0 -75,0 -125,0c-50,0 -100,0 -150,0c-50,0 -100,0 -150,0c-50,0 -100,0 -150,0c-50,0 -100,0 -150,0c-50,0 -100,0 -125,0l-25,0l0,-169z"/>
  <path id="svg_4" fill="#a8a6ff" d="m0,148l25,-1.3c25,-1.4 75,-4 125,-13c50,-9 100,-24.4 150,-35c50,-10.7 100,-16.7 150,-9c50,7.6 100,29 150,33.5c50,4.5 100,-7.9 150,-6.4c50,1.5 100,16.9 125,24.5l25,7.7l0,66l-25,0c-25,0 -75,0 -125,0c-50,0 -100,0 -150,0c-50,0 -100,0 -150,0c-50,0 -100,0 -150,0c-50,0 -100,0 -150,0c-50,0 -100,0 -125,0l-25,0l0,-67z"/>
  <path id="svg_5" fill="#cec8ff" d="m0,113l25,0c25,0 75,0 125,0.3c50,0.4 100,1 150,7.7c50,6.7 100,19.3 150,25.5c50,6.2 100,5.8 150,4.8c50,-1 100,-2.6 150,-9c50,-6.3 100,-17.3 125,-22.8l25,-5.5l0,101l-25,0c-25,0 -75,0 -125,0c-50,0 -100,0 -150,0c-50,0 -100,0 -150,0c-50,0 -100,0 -150,0c-50,0 -100,0 -150,0c-50,0 -100,0 -125,0l-25,0l0,-102z"/>
  <path id="svg_6" fill="#efecff" d="m0,189l25,0.8c25,0.9 75,2.5 125,-0.8c50,-3.3 100,-11.7 150,-12.2c50,-0.5 100,6.9 150,11.7c50,4.8 100,7.2 150,3.7c50,-3.5 100,-12.9 150,-15.5c50,-2.7 100,1.3 125,3.3l25,2l0,33l-25,0c-25,0 -75,0 -125,0c-50,0 -100,0 -150,0c-50,0 -100,0 -150,0c-50,0 -100,0 -150,0c-50,0 -100,0 -150,0c-50,0 -100,0 -125,0l-25,0l0,-26z"/>
 </g>
</svg>