<svg width="899" height="166" xmlns="http://www.w3.org/2000/svg" version="1.1">

 <g>
  <title>Layer 1</title>
  <path id="svg_1" fill="#2667ff" d="m0,58l21.5,-6.2c21.5,-6.1 64.5,-18.5 107.3,-29.3c42.9,-10.8 85.5,-20.2 128.4,-14.5c42.8,5.7 85.8,26.3 128.6,36.5c42.9,10.2 85.5,9.8 128.4,-1.8c42.8,-11.7 85.8,-34.7 128.6,-40.7c42.9,-6 85.5,5 128.4,12.7c42.8,7.6 85.8,12 107.3,14.1l21.5,2.2l0,143l-21.5,0c-21.5,0 -64.5,0 -107.3,0c-42.9,0 -85.5,0 -128.4,0c-42.8,0 -85.8,0 -128.6,0c-42.9,0 -85.5,0 -128.4,0c-42.8,0 -85.8,0 -128.6,0c-42.9,0 -85.5,0 -128.4,0c-42.8,0 -85.8,0 -107.3,0l-21.5,0l0,-116z"/>
  <path id="svg_2" fill="#2c59f3" d="m0,22l21.5,-0.2c21.5,-0.1 64.5,-0.5 107.3,8.4c42.9,8.8 85.5,26.8 128.4,26.8c42.8,0 85.8,-18 128.6,-18.5c42.9,-0.5 85.5,16.5 128.4,25.5c42.8,9 85.8,10 128.6,5.5c42.9,-4.5 85.5,-14.5 128.4,-16c42.8,-1.5 85.8,5.5 107.3,9l21.5,3.5l0,108l-21.5,0c-21.5,0 -64.5,0 -107.3,0c-42.9,0 -85.5,0 -128.4,0c-42.8,0 -85.8,0 -128.6,0c-42.9,0 -85.5,0 -128.4,0c-42.8,0 -85.8,0 -128.6,0c-42.9,0 -85.5,0 -128.4,0c-42.8,0 -85.8,0 -107.3,0l-21.5,0l0,-152z"/>
  <path id="svg_3" fill="#324ae6" d="m0,53l21.5,4.8c21.5,4.9 64.5,14.5 107.3,14.9c42.9,0.3 85.5,-8.7 128.4,-6.4c42.8,2.4 85.8,16 128.6,16.7c42.9,0.7 85.5,-11.7 128.4,-18.5c42.8,-6.8 85.8,-8.2 128.6,-0.3c42.9,7.8 85.5,24.8 128.4,24.6c42.8,-0.1 85.8,-17.5 107.3,-26.1l21.5,-8.7l0,120l-21.5,0c-21.5,0 -64.5,0 -107.3,0c-42.9,0 -85.5,0 -128.4,0c-42.8,0 -85.8,0 -128.6,0c-42.9,0 -85.5,0 -128.4,0c-42.8,0 -85.8,0 -128.6,0c-42.9,0 -85.5,0 -128.4,0c-42.8,0 -85.8,0 -107.3,0l-21.5,0l0,-121z"/>
  <path id="svg_4" fill="#373ad9" d="m0,106l21.5,-2.8c21.5,-2.9 64.5,-8.5 107.3,-10c42.9,-1.5 85.5,1.1 128.4,1c42.8,-0.2 85.8,-3.2 128.6,-1.2c42.9,2 85.5,9 128.4,12c42.8,3 85.8,2 128.6,2.2c42.9,0.1 85.5,1.5 128.4,3.5c42.8,2 85.8,4.6 107.3,6l21.5,1.3l0,56l-21.5,0c-21.5,0 -64.5,0 -107.3,0c-42.9,0 -85.5,0 -128.4,0c-42.8,0 -85.8,0 -128.6,0c-42.9,0 -85.5,0 -128.4,0c-42.8,0 -85.8,0 -128.6,0c-42.9,0 -85.5,0 -128.4,0c-42.8,0 -85.8,0 -107.3,0l-21.5,0l0,-68z"/>
  <path id="svg_5" fill="#3b28cc" d="m0,129l21.5,1.3c21.5,1.4 64.5,4 107.3,2.4c42.9,-1.7 85.5,-7.7 128.4,-9.4c42.8,-1.6 85.8,1 128.6,1.5c42.9,0.5 85.5,-1.1 128.4,0.4c42.8,1.5 85.8,6.1 128.6,11.3c42.9,5.2 85.5,10.8 128.4,11.5c42.8,0.7 85.8,-3.7 107.3,-5.8l21.5,-2.2l0,34l-21.5,0c-21.5,0 -64.5,0 -107.3,0c-42.9,0 -85.5,0 -128.4,0c-42.8,0 -85.8,0 -128.6,0c-42.9,0 -85.5,0 -128.4,0c-42.8,0 -85.8,0 -128.6,0c-42.9,0 -85.5,0 -128.4,0c-42.8,0 -85.8,0 -107.3,0l-21.5,0l0,-45z"/>
 </g>
</svg>