<svg width="426" height="327" xmlns="http://www.w3.org/2000/svg">

 <g>
  <title>Layer 1</title>
  <g id="freepik--Books--inject-34">
   <g id="freepik--books--inject-34">
    <g id="freepik--Book--inject-34">
     <path id="svg_1" d="m374.19,319.14l1.18,-0.68a1.85,1.85 0 0 0 -1,-0.07c-0.3,0.15 -0.18,0.75 -0.18,0.75z"/>
     <path id="svg_2" d="m373.38,318.4a1.43,1.43 0 0 1 2.11,0c1.15,1.05 1.2,2.1 1.68,2.08s0.47,-4.84 0.47,-4.84l-4.53,0.63l0.27,2.13z"/>
     <path id="svg_3" fill="#455a64" d="m420.88,291.39l0.07,0l-0.73,-0.42l-31.28,-18.06l-45.58,25.9c-0.75,0.43 -0.88,1.06 -0.29,1.4l1.06,0.61l29.24,16.89l0.21,-0.15l47.3,-26.17z"/>
     <path id="svg_4" fill="#3B28CC" d="m377.27,311.66l-2.26,-0.47l0,5.48c1.37,0.58 2.23,1.12 2.38,2.27l-0.12,-7.28z"/>
     <path id="svg_5" fill="#ebebeb" d="m374,316.79l-29,-16.73a2,2 0 0 1 -0.91,-1.57l0,-5.35l29.25,17a2.69,2.69 0 0 0 1.38,1.66c1,0.4 0.25,0.8 0.25,0.8l0,4c-0.86,-0.04 -0.97,0.19 -0.97,0.19z"/>
     <path id="svg_6" fill="#37474f" d="m376.68,311.35c-0.3,-0.17 -0.54,-0.18 -0.54,0l0,0.28c0,0.32 -0.48,0.3 -1.07,0s-1.07,-0.87 -1.07,-1.18l0,-0.29c0,-0.16 -0.41,-0.52 -0.9,-0.81l47.12,-27l0.73,0.43a0.7,0.7 0 0 1 0.18,0.39l0,0.28c0,0.32 0.48,0.85 1.07,1.19s1.07,0.36 1.07,0l0,-0.28c0,-0.17 0.24,-0.15 0.54,0l-47.13,26.99z"/>
     <path id="svg_7" fill="#455a64" d="m420.88,282.75l0.07,0l-0.73,-0.42l-31.28,-18.06l-45.58,26.32c-0.75,0.43 -0.88,1.06 -0.29,1.4l1.06,0.61l29.25,17.62l47.5,-27.47z"/>
     <path id="svg_8" fill="#455a64" d="m423.28,284.05l-47.09,27.19l1.65,1.29l46.94,-27.1a1.94,1.94 0 0 0 -0.63,-0.88l-0.87,-0.5z"/>
     <path id="svg_9" fill="#37474f" d="m424.59,294l0.09,-0.06l0.05,-0.05a0.38,0.38 0 0 0 0.09,-0.13l0.05,-0.06a1.11,1.11 0 0 0 0.12,-0.27a2.64,2.64 0 0 0 0.1,-0.3c0,-0.12 0,-0.23 0.06,-0.36a1.52,1.52 0 0 0 0,-0.21c0,-0.06 0,-0.11 0,-0.18s0,-0.27 0,-0.41l0,-4.17a6.51,6.51 0 0 0 -0.43,-2.37l-46.94,27.1l-0.2,8.59l47,-27.12l0.01,0z"/>
     <path id="svg_10" fill="#263238" d="m378.27,314.9l-1,0a4.73,4.73 0 0 0 -0.51,-2.29a1.43,1.43 0 0 1 -0.86,0.28a2.78,2.78 0 0 1 -1.31,-0.41a4.08,4.08 0 0 1 -1.21,-1.07a0.47,0.47 0 0 1 -0.06,-0.09a1.73,1.73 0 0 1 -0.32,-0.9l-27.74,-16l-0.94,-0.54l-1.2,-0.7a0.62,0.62 0 0 1 -0.37,-0.54l0,-1.23a0.64,0.64 0 0 0 0.37,0.56l0,0l3.19,1.83l26.82,15.5c0.5,0.28 0.91,0.65 0.91,0.81l0,0.28a0.84,0.84 0 0 0 0.25,0.5a3,3 0 0 0 0.82,0.69c0.59,0.34 1.07,0.36 1.07,0l0,-0.28c0,-0.16 0.24,-0.15 0.54,0l0.53,0.31c0.54,0.39 1.02,1.84 1.02,3.29z"/>
     <path id="svg_11" fill="#263238" d="m377.22,314.9l0,4.19c0,0.11 0,0.22 0,0.32l0,0.26a0,0 0 0 1 0,0a3,3 0 0 0 -1.59,-2a2.65,2.65 0 0 0 -1.28,-0.39a1.42,1.42 0 0 0 -0.94,0.34l-0.09,-0.05l-0.19,-0.11l-26.86,-15.46l-1.54,-0.89l-0.45,-0.26l-1.29,-0.75a0.6,0.6 0 0 1 -0.29,-0.5l0,1.23a0.59,0.59 0 0 0 0.27,0.47l0,0l0.47,0.28l0.3,0.17l0.52,0.3l0.32,0.18l0.23,0.14l0.39,0.23l21.31,12.29l6.8,3.93c0.49,0.29 0.88,0.39 0.91,0.24l0,-0.33c0,-0.34 0.48,-0.34 1.07,0a1.44,1.44 0 0 1 0.84,1.08l0,0.33a0.48,0.48 0 0 0 0.16,0.4l0.16,0.09l0.33,0.2l0.42,0.24a0.42,0.42 0 0 0 0.53,-0.05l0.05,-0.05a0.34,0.34 0 0 0 0.09,-0.12l0,0a0.13,0.13 0 0 0 0.05,-0.06a1.23,1.23 0 0 0 0.12,-0.26a2.81,2.81 0 0 0 0.1,-0.31c0,-0.11 0,-0.23 0.07,-0.36a1.36,1.36 0 0 0 0,-0.21c0,-0.06 0,-0.11 0,-0.18s0,-0.26 0,-0.4l0,-4.17l-0.99,0z"/>
    </g>
    <g id="freepik--book--inject-34">
     <path id="svg_12" fill="#3B28CC" d="m342.71,289l0.93,-0.54l-0.67,-0.3s-0.54,0.14 -0.55,0.16a3.5,3.5 0 0 0 0,0.37l0.29,0.31z"/>
     <path id="svg_13" opacity="0.5" d="m342.71,289l0.93,-0.54l-0.67,-0.3s-0.54,0.14 -0.55,0.16a3.5,3.5 0 0 0 0,0.37l0.29,0.31z"/>
     <path id="svg_14" fill="#3B28CC" d="m378.26,306.91a3,3 0 0 1 -2.73,0l-30.64,-17.69l45.87,-26.49l1.07,-0.62l30.64,17.69a0.84,0.84 0 0 1 0,1.58l-44.21,25.53z"/>
     <path id="svg_15" fill="#3B28CC" d="m366.75,273.49l-10.68,6.15l-6.92,-4l-8,4.65l0,5.8c0,0.71 0.79,1.71 1.08,1.54a7.9,7.9 0 0 1 1.54,0.55a12,12 0 0 1 2.22,1.64l24.55,-14.17l-3.79,-2.16z"/>
     <path id="svg_16" opacity="0.15" d="m366.75,273.49l-10.68,6.15l-6.92,-4l-8,4.65l0,5.8c0,0.71 0.79,1.71 1.08,1.54a7.9,7.9 0 0 1 1.54,0.55a12,12 0 0 1 2.22,1.64l24.55,-14.17l-3.79,-2.16z"/>
     <path id="svg_17" opacity="0.4" d="m341.1,286.09c0,0.66 0.69,1.58 1,1.56l0.06,0s1,-0.6 1.07,-0.61l0.93,-3.06s-0.06,-3.58 0,-3.58a14.05,14.05 0 0 0 -0.61,-1.51l-2.47,1.42l0.02,5.78z"/>
     <path id="svg_18" fill="#3B28CC" d="m375.53,306.91l-1.85,-1.07l-27.74,-16a1.72,1.72 0 0 0 -0.38,-1a4.21,4.21 0 0 0 -1.21,-1.07a2.78,2.78 0 0 0 -1.31,-0.41a1.43,1.43 0 0 0 -0.86,0.28a4.73,4.73 0 0 1 -0.51,-2.29l-1.05,0c0,1.45 0.47,2.9 1.06,3.24l0.53,0.31c0.3,0.17 0.54,0.18 0.54,0l0,-0.28c0,-0.32 0.48,-0.3 1.07,0s1.07,0.87 1.07,1.19l0,0.28c0,0.16 0.41,0.53 0.91,0.81l26.82,15.5l2.91,1.67l0,0a2.87,2.87 0 0 0 1.36,0.32l0,-1.22a2.76,2.76 0 0 1 -1.36,-0.26z"/>
     <path id="svg_19" opacity="0.3" d="m375.53,306.91l-1.85,-1.07l-27.74,-16a1.72,1.72 0 0 0 -0.38,-1a4.21,4.21 0 0 0 -1.21,-1.07a2.78,2.78 0 0 0 -1.31,-0.41a1.43,1.43 0 0 0 -0.86,0.28a4.73,4.73 0 0 1 -0.51,-2.29l-1.05,0c0,1.45 0.47,2.9 1.06,3.24l0.53,0.31c0.3,0.17 0.54,0.18 0.54,0l0,-0.28c0,-0.32 0.48,-0.3 1.07,0s1.07,0.87 1.07,1.19l0,0.28c0,0.16 0.41,0.53 0.91,0.81l26.82,15.5l2.91,1.67l0,0a2.87,2.87 0 0 0 1.36,0.32l0,-1.22a2.76,2.76 0 0 1 -1.36,-0.26z"/>
     <path id="svg_20" fill="#3B28CC" d="m423,280.57l0,1.24a1,1 0 0 1 -0.54,0.78l0,0l-41.31,23.85l-2.9,1.67l0,0a2.89,2.89 0 0 1 -1.37,0.32l0,-1.22a2.77,2.77 0 0 0 1.37,-0.32l1.84,-1.07l0,0l42.36,-24.46a0.94,0.94 0 0 0 0.55,-0.79z"/>
     <path id="svg_21" opacity="0.2" d="m423,280.57l0,1.24a1,1 0 0 1 -0.54,0.78l0,0l-41.31,23.85l-2.9,1.67l0,0a2.89,2.89 0 0 1 -1.37,0.32l0,-1.22a2.77,2.77 0 0 0 1.37,-0.32l1.84,-1.07l0,0l42.36,-24.46a0.94,0.94 0 0 0 0.55,-0.79z"/>
     <path id="svg_22" fill="#ebebeb" d="m376.89,299.05l0,7.09a1.74,1.74 0 0 1 -0.9,-0.22l-3.37,-1.92l-25.62,-14.8l0,-7.4l29.89,17.25z"/>
     <path id="svg_23" fill="#f5f5f5" d="m421.7,274.07l0,5.45a2,2 0 0 1 -0.9,1.58l-39.64,22.9l-3.36,1.94a1.75,1.75 0 0 1 -0.91,0.22l0,-6.33l44.81,-25.76z"/>
     <path id="svg_24" fill="#37474f" d="m345.52,280.94l0,6.26l-0.1,-0.06a2.7,2.7 0 0 0 -1.3,-0.41a1.4,1.4 0 0 0 -0.87,0.29l0,-7.39l2.27,1.31z"/>
     <path id="svg_25" fill="#e0e0e0" d="m347,289.2a1.79,1.79 0 0 0 -0.38,-1a3.16,3.16 0 0 0 -0.38,-0.44l-0.13,-0.12l-0.17,-0.14l-0.14,-0.11l-0.3,-0.2l0,-6.26l1.5,0.86l0,7.41z"/>
     <path id="svg_26" fill="#3B28CC" d="m390.76,254.09l-45.87,26.48l0,0.62c0,0.34 -0.48,0.47 -1.07,0.12s-1.07,-0.76 -1.07,-1.35l-0.06,-0.58l46.74,-27l0.19,-0.11a0.54,0.54 0 0 1 0.08,0.28l0,0.28c0,0.36 0.47,0.91 1.06,1.26z"/>
     <path id="svg_27" opacity="0.1" d="m390.76,254.09l-45.87,26.48l0,0.62c0,0.34 -0.48,0.47 -1.07,0.12s-1.07,-0.76 -1.07,-1.35l-0.06,-0.58l46.74,-27l0.19,-0.11a0.54,0.54 0 0 1 0.08,0.28l0,0.28c0,0.36 0.47,0.91 1.06,1.26z"/>
     <path id="svg_28" fill="#3B28CC" d="m375.53,298.27l-30,-17.3c-0.38,-0.2 -0.73,-0.36 -0.88,-0.29l0.2,-0.11l45.87,-26.48l0.53,-0.31a1.73,1.73 0 0 1 1.45,0.21l29.73,17.17a0.84,0.84 0 0 1 0,1.58l-44.21,25.53a3,3 0 0 1 -2.69,0z"/>
     <path id="svg_29" fill="#3B28CC" d="m389.62,252.29l-0.19,0.11l-46.74,27a0.31,0.31 0 0 0 -0.1,-0.13l-0.16,-0.09l-0.33,-0.19l-0.42,-0.25a0.44,0.44 0 0 0 -0.53,0l0,0.05a0.94,0.94 0 0 0 -0.14,0.19a1.11,1.11 0 0 0 -0.12,0.27a2.64,2.64 0 0 0 -0.1,0.3c0,0.12 0,0.23 -0.07,0.36a1.49,1.49 0 0 0 0,0.21c0,0.06 0,0.11 0,0.18s0,0.26 0,0.41l0,-1.32a2.81,2.81 0 0 1 1.36,-2.1l44.22,-25.53a2.74,2.74 0 0 1 2.43,-0.17l0.56,0.32l0,0l0.23,0.14a0,0 0 0 1 0,0a0.4,0.4 0 0 1 0.1,0.24z"/>
     <path id="svg_30" fill="#3B28CC" d="m375.54,298.27l0,0l-1.85,-1.08l-21.32,-12.29l-6.8,-3.93c-0.49,-0.29 -0.88,-0.39 -0.91,-0.24l0,0.33c0,0.34 -0.48,0.34 -1.07,0a1.41,1.41 0 0 1 -0.84,-1.07l0,-0.34a0.5,0.5 0 0 0 -0.16,-0.4l-0.16,-0.09l-0.33,-0.19l-0.42,-0.25a0.44,0.44 0 0 0 -0.53,0l0,0.05a0.38,0.38 0 0 0 -0.09,0.13a0.13,0.13 0 0 0 -0.05,0.06a1.11,1.11 0 0 0 -0.12,0.27a2.64,2.64 0 0 0 -0.1,0.3c0,0.12 0,0.23 -0.07,0.36a1.49,1.49 0 0 0 0,0.21c0,0.06 0,0.11 0,0.18s0,0.26 0,0.41l0,4.6l1.05,0l0,-4.6c0,-0.11 0,-0.22 0,-0.33l0,-0.26a0,0 0 0 1 0,0a3,3 0 0 0 1.59,2a2.65,2.65 0 0 0 1.28,0.4a1.38,1.38 0 0 0 0.94,-0.35l0.09,0.05a1.86,1.86 0 0 0 0.19,0.11l26.82,15.49l2.91,1.68l0,0a2.87,2.87 0 0 0 1.33,0.31l0,-1.22a2.81,2.81 0 0 1 -1.38,-0.3z"/>
     <path id="svg_31" opacity="0.3" d="m375.54,298.27l0,0l-1.85,-1.08l-21.32,-12.29l-6.8,-3.93c-0.49,-0.29 -0.88,-0.39 -0.91,-0.24l0,0.33c0,0.34 -0.48,0.34 -1.07,0a1.41,1.41 0 0 1 -0.84,-1.07l0,-0.34a0.5,0.5 0 0 0 -0.16,-0.4l-0.16,-0.09l-0.33,-0.19l-0.42,-0.25a0.44,0.44 0 0 0 -0.53,0l0,0.05a0.38,0.38 0 0 0 -0.09,0.13a0.13,0.13 0 0 0 -0.05,0.06a1.11,1.11 0 0 0 -0.12,0.27a2.64,2.64 0 0 0 -0.1,0.3c0,0.12 0,0.23 -0.07,0.36a1.49,1.49 0 0 0 0,0.21c0,0.06 0,0.11 0,0.18s0,0.26 0,0.41l0,4.6l1.05,0l0,-4.6c0,-0.11 0,-0.22 0,-0.33l0,-0.26a0,0 0 0 1 0,0a3,3 0 0 0 1.59,2a2.65,2.65 0 0 0 1.28,0.4a1.38,1.38 0 0 0 0.94,-0.35l0.09,0.05a1.86,1.86 0 0 0 0.19,0.11l26.82,15.49l2.91,1.68l0,0a2.87,2.87 0 0 0 1.33,0.31l0,-1.22a2.81,2.81 0 0 1 -1.38,-0.3z"/>
     <path id="svg_32" fill="#3B28CC" d="m423,271.93l0,1.24a1,1 0 0 1 -0.54,0.78l0,0l-41.31,23.85l-2.9,1.67l0,0a2.89,2.89 0 0 1 -1.37,0.32l0,-1.22a2.77,2.77 0 0 0 1.37,-0.32l1.84,-1.07l0,0l42.36,-24.46a0.94,0.94 0 0 0 0.55,-0.79z"/>
     <path id="svg_33" opacity="0.2" d="m423,271.93l0,1.24a1,1 0 0 1 -0.54,0.78l0,0l-41.31,23.85l-2.9,1.67l0,0a2.89,2.89 0 0 1 -1.37,0.32l0,-1.22a2.77,2.77 0 0 0 1.37,-0.32l1.84,-1.07l0,0l42.36,-24.46a0.94,0.94 0 0 0 0.55,-0.79z"/>
    </g>
   </g>
   <g id="freepik--books--inject-34">
    <g id="freepik--book--inject-34">
     <path id="svg_34" fill="#3B28CC" d="m82.41,303.69l-1.33,-0.71l1.21,-0.29a0.92,0.92 0 0 1 0.12,1z"/>
     <path id="svg_35" opacity="0.5" d="m82.41,303.69l-1.33,-0.71l1.21,-0.29a0.92,0.92 0 0 1 0.12,1z"/>
     <path id="svg_36" fill="#3B28CC" d="m50.43,319.53a3,3 0 0 0 2.7,0l27.12,-15.62l-45.4,-25.79l-1.06,-0.61l-27.11,15.19c-0.75,0.44 -0.75,1.14 0,1.56l43.75,25.27z"/>
     <path id="svg_37" fill="#3B28CC" d="m58.61,288.76l10.57,6.09l6.85,-4l8,4.6l0,5.31c0,0.7 -0.78,1.69 -1.06,1.53a7.06,7.06 0 0 0 -1.52,0.54a11.41,11.41 0 0 0 -2.2,1.62l-24.3,-13.6l3.66,-2.09z"/>
     <path id="svg_38" opacity="0.15" d="m58.61,288.76l10.57,6.09l6.85,-4l8,4.6l0,5.31c0,0.7 -0.78,1.69 -1.06,1.53a7.06,7.06 0 0 0 -1.52,0.54a11.41,11.41 0 0 0 -2.2,1.62l-24.3,-13.6l3.66,-2.09z"/>
     <path id="svg_39" fill="#37474f" d="m79.62,296.14l0,5.77a0.53,0.53 0 0 1 0.1,-0.06a2.66,2.66 0 0 1 1.29,-0.41a1.3,1.3 0 0 1 0.85,0.21l0,-6.81l-2.24,1.3z"/>
     <path id="svg_40" fill="#e0e0e0" d="m78.14,303.89a1.72,1.72 0 0 1 0.38,-1a2.16,2.16 0 0 1 0.37,-0.43l0.13,-0.12l0.16,-0.14l0.14,-0.11l0.3,-0.2l0,-5.74l-1.48,0.85l0,6.87l0,0.02z"/>
     <path id="svg_41" opacity="0.4" d="m84,300.81c0,0.7 -0.78,1.69 -1.06,1.53l0,0l-1.07,-0.69l0,-4.39l1.07,-1.83l0.58,-0.21l0.48,0.28l0,5.31z"/>
     <path id="svg_42" fill="#ebebeb" d="m51.78,312.18l0,6.58a1.74,1.74 0 0 0 0.9,-0.21l3.32,-1.92l22.13,-12.74l0,-6.89l-26.35,15.18z"/>
     <path id="svg_43" fill="#f5f5f5" d="m7.44,287.46l0,5a2,2 0 0 0 0.9,1.56l39.22,22.64l3.32,1.92a1.76,1.76 0 0 0 0.9,0.21l0,-5.83l-44.34,-25.5z"/>
     <path id="svg_44" fill="#3B28CC" d="m34.85,269.57l45.4,26.21l0,0.61c0,0.33 0.47,0.46 1,0.12s1.06,-0.76 1.06,-1.34l0.06,-0.58l-46.25,-26.7l-0.19,-0.11a0.6,0.6 0 0 0 -0.08,0.28l0,0.28c0.05,0.34 -0.42,0.88 -1,1.23z"/>
     <path id="svg_45" opacity="0.1" d="m34.85,269.57l45.4,26.21l0,0.61c0,0.33 0.47,0.46 1,0.12s1.06,-0.76 1.06,-1.34l0.06,-0.58l-46.25,-26.7l-0.19,-0.11a0.6,0.6 0 0 0 -0.08,0.28l0,0.28c0.05,0.34 -0.42,0.88 -1,1.23z"/>
     <path id="svg_46" fill="#3B28CC" d="m53.13,311.4l26.44,-15.23c0.38,-0.2 0.73,-0.36 0.87,-0.28l-0.19,-0.11l-45.4,-26.21l-0.53,-0.31a1.73,1.73 0 0 0 -1.43,0.21l-26.21,15.11a0.82,0.82 0 0 0 0,1.56l43.75,25.26a3,3 0 0 0 2.7,0z"/>
     <path id="svg_47" fill="#3B28CC" d="m36,267.78l0.19,0.11l46.25,26.7a0.32,0.32 0 0 1 0.1,-0.12l0.15,-0.09l0.34,-0.19l0.41,-0.24a0.42,0.42 0 0 1 0.52,0l0.06,0.05a1.56,1.56 0 0 1 0.14,0.19l0.12,0.26l0.09,0.3c0,0.12 0.05,0.23 0.07,0.36a1.49,1.49 0 0 1 0,0.21c0,0.06 0,0.11 0,0.17s0,0.27 0,0.41l0,-1.3a2.75,2.75 0 0 0 -1.35,-2.08l-43.73,-25.23a2.71,2.71 0 0 0 -2.4,-0.17l-0.55,0.32l0,0l-0.24,0.14l0,0a0.37,0.37 0 0 0 -0.17,0.2z"/>
     <path id="svg_48" fill="#3B28CC" d="m53.13,319.53l1.87,-1.06l24.25,-14a1.78,1.78 0 0 1 0.37,-1a4,4 0 0 1 1.2,-1.06a2.81,2.81 0 0 1 1.3,-0.4a1.36,1.36 0 0 1 0.85,0.28a4.7,4.7 0 0 0 0.5,-2.27l1,0c0,1.43 -0.47,2.87 -1,3.2l-0.53,0.31c-0.29,0.17 -0.53,0.18 -0.53,0l0,-0.28c0,-0.31 -0.47,-0.29 -1.06,0s-1,0.87 -1,1.18l0,0.28c0,0.16 -0.41,0.52 -0.9,0.8l-23.45,13.56l-2.88,1.66l0,0a2.83,2.83 0 0 1 -1.35,0.32l0,-1.2a2.7,2.7 0 0 0 1.36,-0.32z"/>
     <path id="svg_49" opacity="0.3" d="m53.13,319.53l1.87,-1.06l24.25,-14a1.78,1.78 0 0 1 0.37,-1a4,4 0 0 1 1.2,-1.06a2.81,2.81 0 0 1 1.3,-0.4a1.36,1.36 0 0 1 0.85,0.28a4.7,4.7 0 0 0 0.5,-2.27l1,0c0,1.43 -0.47,2.87 -1,3.2l-0.53,0.31c-0.29,0.17 -0.53,0.18 -0.53,0l0,-0.28c0,-0.31 -0.47,-0.29 -1.06,0s-1,0.87 -1,1.18l0,0.28c0,0.16 -0.41,0.52 -0.9,0.8l-23.45,13.56l-2.88,1.66l0,0a2.83,2.83 0 0 1 -1.35,0.32l0,-1.2a2.7,2.7 0 0 0 1.36,-0.32z"/>
     <path id="svg_50" fill="#3B28CC" d="m53.12,311.41l0,0l1.88,-1.07l17.88,-10.28l6.74,-3.89c0.47,-0.28 0.86,-0.38 0.89,-0.24l0,0.33c0,0.33 0.47,0.33 1,0a1.42,1.42 0 0 0 0.83,-1.06l0,-0.34a0.46,0.46 0 0 1 0.16,-0.39l0.15,-0.09l0.34,-0.19l0.41,-0.24a0.42,0.42 0 0 1 0.52,0l0.06,0.05l0.09,0.13l0,0.06l0.12,0.26l0.09,0.3c0,0.12 0.05,0.23 0.07,0.36a1.49,1.49 0 0 1 0,0.21c0,0.06 0,0.11 0,0.17s0,0.27 0,0.41l0,4.13l-1,0l0,-4.13c0,-0.11 0,-0.22 0,-0.32l0,-0.26a0,0 0 0 0 0,0a3,3 0 0 1 -1.57,2a2.61,2.61 0 0 1 -1.27,0.39a1.41,1.41 0 0 1 -0.93,-0.34l-0.09,0.05l-0.18,0.11l-23.31,13.47l-2.88,1.65l0,0a2.87,2.87 0 0 1 -1.33,0.31l0,-1.2a2.74,2.74 0 0 0 1.33,-0.35z"/>
     <path id="svg_51" opacity="0.3" d="m53.12,311.41l0,0l1.88,-1.07l17.88,-10.28l6.74,-3.89c0.47,-0.28 0.86,-0.38 0.89,-0.24l0,0.33c0,0.33 0.47,0.33 1,0a1.42,1.42 0 0 0 0.83,-1.06l0,-0.34a0.46,0.46 0 0 1 0.16,-0.39l0.15,-0.09l0.34,-0.19l0.41,-0.24a0.42,0.42 0 0 1 0.52,0l0.06,0.05l0.09,0.13l0,0.06l0.12,0.26l0.09,0.3c0,0.12 0.05,0.23 0.07,0.36a1.49,1.49 0 0 1 0,0.21c0,0.06 0,0.11 0,0.17s0,0.27 0,0.41l0,4.13l-1,0l0,-4.13c0,-0.11 0,-0.22 0,-0.32l0,-0.26a0,0 0 0 0 0,0a3,3 0 0 1 -1.57,2a2.61,2.61 0 0 1 -1.27,0.39a1.41,1.41 0 0 1 -0.93,-0.34l-0.09,0.05l-0.18,0.11l-23.31,13.47l-2.88,1.65l0,0a2.87,2.87 0 0 1 -1.33,0.31l0,-1.2a2.74,2.74 0 0 0 1.33,-0.35z"/>
     <path id="svg_52" fill="#3B28CC" d="m6.12,285.34l0,1.22a0.93,0.93 0 0 0 0.54,0.77l0,0l40.9,23.67l2.87,1.65l0,0a2.77,2.77 0 0 0 1.34,0.32l0,-1.2a2.7,2.7 0 0 1 -1.35,-0.33l-1.82,-1l0,0l-41.92,-24.3a0.92,0.92 0 0 1 -0.56,-0.8z"/>
     <path id="svg_53" opacity="0.2" d="m6.12,285.34l0,1.22a0.93,0.93 0 0 0 0.54,0.77l0,0l40.9,23.67l2.87,1.65l0,0a2.77,2.77 0 0 0 1.34,0.32l0,-1.2a2.7,2.7 0 0 1 -1.35,-0.33l-1.82,-1l0,0l-41.92,-24.3a0.92,0.92 0 0 1 -0.56,-0.8z"/>
     <path id="svg_54" fill="#3B28CC" d="m6.12,293.47l0,1.22a0.93,0.93 0 0 0 0.54,0.77l0,0l40.88,23.6l2.87,1.66l0,0a2.77,2.77 0 0 0 1.34,0.32l0,-1.2a2.7,2.7 0 0 1 -1.35,-0.32l-1.82,-1.06l0,0l-41.9,-24.2a0.92,0.92 0 0 1 -0.56,-0.79z"/>
     <path id="svg_55" opacity="0.2" d="m6.12,293.47l0,1.22a0.93,0.93 0 0 0 0.54,0.77l0,0l40.88,23.6l2.87,1.66l0,0a2.77,2.77 0 0 0 1.34,0.32l0,-1.2a2.7,2.7 0 0 1 -1.35,-0.32l-1.82,-1.06l0,0l-41.9,-24.2a0.92,0.92 0 0 1 -0.56,-0.79z"/>
    </g>
    <g id="freepik--book--inject-34">
     <polygon id="svg_56" fill="#263238" points="82.41999816894531,290.3800048828125 50.16999816894531,308.69000244140625 3.020000457763672,281.6300048828125 35.26000213623047,263.32000732421875 82.41999816894531,290.3800048828125 "/>
     <path id="svg_57" fill="#f5f5f5" d="m49.85,307.46l31.24,-17.84a11.44,11.44 0 0 1 0.14,-7.14l-31.06,17.67s-0.52,1.72 -0.32,7.31z"/>
     <path id="svg_58" fill="#37474f" d="m51.58,297.92a5.82,5.82 0 0 0 -2.65,4.55l0,5.32c0,1.68 1.19,2.36 2.65,1.52l30.84,-17.61l0,-1.32l-30.48,17.31c-0.87,0.5 -1.58,0.09 -1.58,-0.91l0,-4.93a3.52,3.52 0 0 1 1.64,-2.74l30.45,-17.31l0,-1.49l-30.87,17.61z"/>
     <path id="svg_59" fill="#455a64" d="m82.42,280.31l-47.16,-27.06l-30.83,17.61a5.82,5.82 0 0 0 -2.65,4.55l0,5.33a1.85,1.85 0 0 0 0.78,1.7l47.15,27.06a1.88,1.88 0 0 1 -0.78,-1.7l0,-5.33a5.82,5.82 0 0 1 2.65,-4.55l30.84,-17.61z"/>
     <path id="svg_60" fill="#263238" d="m49.71,299.88a5.32,5.32 0 0 0 -0.78,2.59l0,5.33a1.88,1.88 0 0 0 0.78,1.7l-47.15,-27.06a1.85,1.85 0 0 1 -0.78,-1.7l0,-5.33a5.38,5.38 0 0 1 0.78,-2.59l47.15,27.06z"/>
     <path id="svg_61" fill="#fff" d="m8.77,276.35a18.65,18.65 0 0 0 0,9.67l2.23,1.27a18.66,18.66 0 0 1 0,-9.67l-2.23,-1.27z"/>
     <path id="svg_62" fill="#fff" d="m40.09,294.43a18.59,18.59 0 0 0 0,9.68l2.19,1.26a18.66,18.66 0 0 1 0,-9.67l-2.19,-1.27z"/>
    </g>
   </g>
  </g>
  <g id="freepik--character-2--inject-34">
   <g id="freepik--Character--inject-34">
    <g id="freepik--Bottom--inject-34">
     <path id="svg_63" fill="#c8856a" d="m295.88,258.44c0.26,-3.53 4.34,-39.23 4.34,-39.23l-19.66,11.9c2.56,20.38 3.17,24.27 3.24,27.66l-0.34,1.94c0,0.08 1.22,0.4 1.23,0.9c0,4 5.14,6.21 8.7,8.89a65.57,65.57 0 0 0 9.62,6.24c2.58,1.29 7.82,1.4 8.46,-0.26c-4.33,-3.29 -9.34,-6.88 -12.78,-10.64c-1.69,-1.79 -3.12,-3.17 -2.81,-7.4z"/>
     <path id="svg_64" fill="#263238" d="m317,281.14a3.46,3.46 0 0 1 -0.78,3.45c-1.43,1.15 -5.58,3 -10.94,2.06s-8.2,-2.67 -10.29,-4.56s-5,-4.54 -7.42,-5.16c-2.24,-0.59 -5.06,-1.89 -5.74,-3.24a7,7 0 0 1 -0.1,-3l35.27,10.45z"/>
     <path id="svg_65" fill="#37474f" d="m283.8,258.77a0.88,0.88 0 0 0 -0.85,0.7c-0.19,0.85 -0.47,3.33 -0.88,4.73c-0.56,1.93 -1.15,5.28 -0.34,7.49c1.44,2 4,2.9 6.3,3.89a30,30 0 0 1 7.45,5.1a22.19,22.19 0 0 0 11.19,4.66c5.36,0.28 8.88,-1 10,-2.93c1.42,-2.33 0.31,-3.9 -5.06,-7.31c-1.09,-0.69 -4.27,-2.86 -5.63,-3.79c-3.69,-2.52 -7.3,-6 -8.88,-10.24a2.3,2.3 0 0 0 -0.83,-1.31a2,2 0 0 0 -1.2,-0.16a22.06,22.06 0 0 0 -4.42,1c-0.84,0.36 -2,0.78 -2.05,1.83a3.38,3.38 0 0 0 0.19,1.09c0.07,0.22 0.51,1.44 0.32,1.56s-0.91,-0.42 -1.65,-1.48a18.14,18.14 0 0 0 -1.55,-2.19c-0.32,-0.27 -1.6,-1 -1.88,-1.26s-0.23,-0.88 -0.23,-1.38z"/>
     <path id="svg_66" fill="#fafafa" d="m312.1,275.4c-7.78,0.24 -11,5 -10.89,8.58a18.31,18.31 0 0 0 5.46,1.36c5.36,0.28 9.1,-1 10.24,-2.91c1.34,-2.2 0.6,-4.74 -4.81,-7.03z"/>
     <path id="svg_67" fill="#f0f0f0" d="m300.42,275.73a0.35,0.35 0 0 1 -0.23,-0.09a0.39,0.39 0 0 1 0,-0.54c1.13,-1.28 5.74,-3.1 8.55,-2.68a0.38,0.38 0 0 1 0.32,0.43a0.38,0.38 0 0 1 -0.43,0.32c-2.62,-0.38 -7,1.42 -7.87,2.43a0.38,0.38 0 0 1 -0.34,0.13z"/>
     <path id="svg_68" fill="#f0f0f0" d="m297.16,273.66a0.38,0.38 0 0 1 -0.27,-0.63c1.13,-1.28 5.74,-3.1 8.54,-2.69a0.38,0.38 0 0 1 0.32,0.43a0.37,0.37 0 0 1 -0.43,0.32c-2.62,-0.38 -7,1.42 -7.86,2.44a0.39,0.39 0 0 1 -0.3,0.13z"/>
     <path id="svg_69" fill="#f0f0f0" d="m294.15,271.32a0.36,0.36 0 0 1 -0.24,-0.09a0.39,0.39 0 0 1 0,-0.54c1.13,-1.28 5.75,-3.1 8.54,-2.68a0.38,0.38 0 0 1 0.32,0.43a0.38,0.38 0 0 1 -0.43,0.32c-2.61,-0.38 -7,1.42 -7.86,2.43a0.39,0.39 0 0 1 -0.33,0.13z"/>
     <path id="svg_70" fill="#f0f0f0" d="m291.2,269a0.35,0.35 0 0 1 -0.23,-0.09a0.37,0.37 0 0 1 0,-0.53c1.55,-1.82 6.39,-3.11 9.19,-2.7a0.38,0.38 0 0 1 0.32,0.43a0.38,0.38 0 0 1 -0.43,0.32c-2.53,-0.37 -7.13,0.83 -8.51,2.44a0.35,0.35 0 0 1 -0.34,0.13z"/>
     <path id="svg_71" fill="#c8856a" d="m261.79,231.09l-17.93,-2.27c-1,11.37 -0.12,22.29 -0.37,33.56c-0.16,2 -1.84,16.87 -1.54,21.07c0.46,6.32 8.58,6.4 9.37,2.73s3.4,-20.74 3.6,-22.37c1.45,-7.52 3.28,-15.73 5.84,-28c0.12,-0.63 0.89,-4.14 1.03,-4.72z"/>
     <path id="svg_72" fill="#263238" d="m253.81,289.06c-0.24,3.66 -0.83,6.08 -2.15,8.22a5.39,5.39 0 0 1 -6.24,2.14c-2.48,-0.65 -5.64,-2.36 -6.33,-5.52a20.17,20.17 0 0 1 0.07,-8.71l14.65,3.87z"/>
     <path id="svg_73" fill="#37474f" d="m243.49,262.38c-1,0.07 -1.37,5 -2,9.89c-0.68,5.27 -1.6,7.55 -2.2,11.87c-0.69,4.93 -0.45,7.14 1.26,10.14s7.81,6 10.86,1.73a17.92,17.92 0 0 0 3.55,-12a125.14,125.14 0 0 1 -0.12,-12.56c0.23,-3.69 1,-7.26 0.07,-7.68c-0.07,0.54 -0.84,4.16 -1.42,4.17a9.21,9.21 0 0 1 0,-1.39a1.59,1.59 0 0 0 -0.27,-1.19a1.89,1.89 0 0 0 -1.13,-0.52c-1,-0.21 -3.12,-0.7 -4.14,-0.8c-0.51,-0.05 -1,-0.08 -1.53,-0.08a8.63,8.63 0 0 0 -2,0.07a0.87,0.87 0 0 0 -0.55,0.49a1.56,1.56 0 0 0 -0.06,0.57a3.85,3.85 0 0 1 -0.14,1c0,0.14 -0.14,0.32 -0.29,0.29s-0.16,-0.18 -0.16,-0.3c0,-0.6 0.08,-1 0.11,-1.73c0,-0.32 0.08,-0.75 0.08,-1.08s0.06,-0.58 0.08,-0.89z"/>
     <path id="svg_74" fill="#fafafa" d="m239,287c-0.2,3.06 0,5.17 1.29,7.51c1.71,3 8.3,6 11.36,1.75a14.06,14.06 0 0 0 2.17,-7.2c-1.82,-3.31 -11.95,-4.84 -14.82,-2.06z"/>
     <path id="svg_75" fill="#f0f0f0" d="m252.34,284l-0.12,0c-0.05,0 -6,-2.43 -10.59,-1.4a0.38,0.38 0 1 1 -0.16,-0.74c4.87,-1.08 10.9,1.37 11.08,1.46a0.37,0.37 0 0 1 0.17,0.51a0.39,0.39 0 0 1 -0.38,0.17z"/>
     <path id="svg_76" fill="#f0f0f0" d="m241.91,278.86a0.36,0.36 0 0 1 -0.32,-0.26a0.38,0.38 0 0 1 0.24,-0.48c4.59,-1.51 10.88,1.27 11.07,1.38a0.37,0.37 0 0 1 0.16,0.51a0.39,0.39 0 0 1 -0.52,0.15s-6.2,-2.73 -10.47,-1.31a0.43,0.43 0 0 1 -0.16,0.01z"/>
     <path id="svg_77" fill="#f0f0f0" d="m242.2,275.39a0.38,0.38 0 0 1 -0.09,-0.73c5.06,-1.77 11.09,1.23 11.26,1.34a0.38,0.38 0 0 1 0.13,0.52a0.39,0.39 0 0 1 -0.53,0.13s-5.9,-2.92 -10.6,-1.28a0.35,0.35 0 0 1 -0.17,0.02z"/>
     <path id="svg_78" fill="#ebebeb" d="m242.54,271.5a0.39,0.39 0 0 1 -0.09,-0.74c4.74,-1.73 11.13,1.34 11.33,1.45a0.38,0.38 0 0 1 -0.39,0.66s-6.28,-3 -10.68,-1.4a0.32,0.32 0 0 1 -0.17,0.03z"/>
     <path id="svg_79" fill="#37474f" d="m255.87,115.08c-3.33,7.46 -6.9,12.66 -7.43,26.75c-1.14,29.95 -1,51.59 -1,51.59c-0.21,2.64 -1.82,8.11 -3.72,21.71c-1.6,11.39 -0.51,28.65 -0.51,28.65s9.1,4 16.19,1.21c2.89,-9.72 8.33,-34.27 11.51,-47.29c2.88,-11.81 4.95,-30 4.95,-30l3.41,30.85s-1.27,11.54 -0.9,18.45c0.4,8.06 4.13,29.38 4.13,29.38s8.76,3.52 14.87,-0.93c0,0 5.18,-40.15 5.33,-49.85c0.28,-19 1.58,-59.11 -1.56,-79l-45.27,-1.52z"/>
     <path id="svg_80" fill="#c8856a" d="m303.18,164.62c-7.78,-1.3 -16.23,2.59 -16.23,2.59s13.12,-0.63 16.21,0.05l0.02,-2.64z"/>
     <path id="svg_81" fill="#c8856a" d="m290.62,169.51s4.48,-1.35 12.52,-0.27l0,2.1s-3.27,-1.49 -12.52,-1.83z"/>
     <path id="svg_82" fill="#c8856a" d="m303.19,162.51s-3.13,-0.88 -9.47,0.3c0,0 3.06,-1.92 9.48,-1.84l-0.01,1.54z"/>
     <path id="svg_83" fill="#c8856a" d="m251.77,169.4s3.57,2.51 10.81,3.3s10.42,-2.39 10.42,-2.39a50.65,50.65 0 0 1 -21.23,-0.91z"/>
     <path id="svg_84" fill="#c8856a" d="m251.86,167.23s14.45,2.27 21.27,0.24c0,0 -0.44,-0.61 -6.5,-2.48a28.29,28.29 0 0 1 5.76,-0.94s-1,-1.53 -10,-0.75s-10.53,3.93 -10.53,3.93z"/>
     <path id="svg_85" fill="#455a64" d="m243,240.8c3.17,1.85 13.22,3.19 17.53,1.78l-1.22,4.59s-2,1.23 -7.9,0.84s-8.26,-2.67 -8.26,-2.67l-0.15,-4.54z"/>
     <path id="svg_86" fill="#455a64" d="m281.56,242.53c3.29,1.47 12.44,1.47 16.44,-0.46l-0.6,4.71s-1.38,1.76 -7.18,1.83s-7.89,-1.6 -7.89,-1.6l-0.77,-4.48z"/>
     <path id="svg_87" fill="#263238" d="m275.87,167.7l3.44,-21.14s12.64,-1.39 17.27,-5.77c0,0 -5.86,8.13 -14.44,9.39l-3.74,17.51l0.84,30.61l-3.37,-30.6z"/>
    </g>
    <g id="freepik--Top--inject-34">
     <path fill="#37474f" d="m254.66,36a54.57,54.57 0 0 1 -1,15.69c-0.79,4 -5.33,12.28 -8.59,19.75c-3.07,7 -8.93,24.83 13.92,32.54c13.21,4.46 30.47,-0.85 37,-5.61c17.46,-12.7 17.77,-28.84 -0.32,-49.16c-4.2,-4.72 -5.42,-14.79 -5.42,-14.79l-35.59,1.58z" id="freepik--Hair--inject-34"/>
     <path id="svg_88" fill="#af6152" d="m339.74,100.27a46.27,46.27 0 0 1 4.89,-1.13c1.26,-0.24 2,0.25 5,1.9s3.68,2.5 4,3.46a2.06,2.06 0 0 1 -0.82,2.28a1.81,1.81 0 0 1 -0.49,3.07a1.65,1.65 0 0 1 -0.66,2.67a2.23,2.23 0 0 1 -1.59,3.07a33,33 0 0 1 -4.86,0.66l-5.47,-15.98z"/>
     <path id="svg_89" fill="#3B28CC" d="m388.15,23.86l-4.48,-3.63l-13.77,23.28l-8.64,3.27l-1.68,-3.54l13.89,-23.51l-4.47,-3.62c-0.67,0.19 -1.35,0.41 -2.05,0.68c-12.25,4.63 -23.92,19 -26.05,32c-1.07,6.57 0.49,11.55 3.86,14.27l0,0l4.46,3.61c0.28,0.22 0.57,0.42 0.87,0.62l-23.5,149.71c-8.12,6.62 -14.64,16.69 -16.18,26.11c-0.8,4.89 -0.15,8.88 1.62,11.75l4.48,3.62l13.77,-23.28l8.64,-3.26l1.68,3.54l-13.89,23.52l4.48,3.62c0.67,-0.19 1.35,-0.42 2.05,-0.68c12.25,-4.63 23.92,-18.95 26.05,-32c1.06,-6.5 -0.45,-11.43 -3.75,-14.18l0,0l-0.08,-0.06l-0.06,-0.05l-4.31,-3.48l0,0a10.61,10.61 0 0 0 -1,-0.72l23.49,-149.78c8.12,-6.62 14.64,-16.69 16.18,-26.11c0.81,-4.84 0.16,-8.84 -1.61,-11.7z"/>
     <path id="svg_90" fill="#fff" opacity="0.8" d="m388.15,23.86l-4.48,-3.63l-13.77,23.28l-8.64,3.27l-1.68,-3.54l13.89,-23.51l-4.47,-3.62c-0.67,0.19 -1.35,0.41 -2.05,0.68c-12.25,4.63 -23.92,19 -26.05,32c-1.07,6.57 0.49,11.55 3.86,14.27l0,0l4.46,3.61c0.28,0.22 0.57,0.42 0.87,0.62l-23.5,149.71c-8.12,6.62 -14.64,16.69 -16.18,26.11c-0.8,4.89 -0.15,8.88 1.62,11.75l4.48,3.62l13.77,-23.28l8.64,-3.26l1.68,3.54l-13.89,23.52l4.48,3.62c0.67,-0.19 1.35,-0.42 2.05,-0.68c12.25,-4.63 23.92,-18.95 26.05,-32c1.06,-6.5 -0.45,-11.43 -3.75,-14.18l0,0l-0.08,-0.06l-0.06,-0.05l-4.31,-3.48l0,0a10.61,10.61 0 0 0 -1,-0.72l23.49,-149.78c8.12,-6.62 14.64,-16.69 16.18,-26.11c0.81,-4.84 0.16,-8.84 -1.61,-11.7z"/>
     <polygon id="svg_91" fill="#3B28CC" opacity="0.4" points="369.8999938964844,43.50999450683594 374.3900146484375,47.1300048828125 363.4100036621094,51.279998779296875 361.260009765625,46.779998779296875 369.8999938964844,43.50999450683594 "/>
     <polygon id="svg_92" fill="#3B28CC" opacity="0.4" points="340.6099853515625,235.510009765625 345.0899963378906,239.1300048828125 341.25,231.08999633789062 338.9200134277344,231.97000122070312 340.6099853515625,235.510009765625 "/>
     <polygon id="svg_93" fill="#3B28CC" opacity="0.4" points="326.5899963378906,217.02999877929688 331.07000732421875,220.64999389648438 354.8699951171875,68.92999267578125 350.3800048828125,65.30999755859375 326.5899963378906,217.02999877929688 "/>
     <path id="svg_94" fill="#3B28CC" d="m349.8,213.43l23.79,-151.71c8.12,-6.62 14.64,-16.69 16.18,-26.11c0.8,-4.89 0.15,-8.89 -1.62,-11.75l-13.76,23.27l-11,4.15l-3.83,-8l13.89,-23.51c-0.67,0.19 -1.35,0.41 -2,0.68c-12.26,4.63 -23.92,19 -26.06,32c-1.56,9.55 2.44,15.72 9.5,16.54l-23.8,151.72c-8.12,6.62 -14.64,16.69 -16.18,26.11c-0.8,4.89 -0.15,8.89 1.62,11.75l13.77,-23.28l11,-4.14l3.84,8l-13.9,23.51c0.67,-0.19 1.35,-0.42 2.05,-0.68c12.25,-4.63 23.92,-18.95 26.05,-32c1.51,-9.55 -2.49,-15.73 -9.54,-16.55z"/>
     <path id="svg_95" fill="#fff" opacity="0.6" d="m349.8,213.43l23.79,-151.71c8.12,-6.62 14.64,-16.69 16.18,-26.11c0.8,-4.89 0.15,-8.89 -1.62,-11.75l-13.76,23.27l-11,4.15l-3.83,-8l13.89,-23.51c-0.67,0.19 -1.35,0.41 -2,0.68c-12.26,4.63 -23.92,19 -26.06,32c-1.56,9.55 2.44,15.72 9.5,16.54l-23.8,151.72c-8.12,6.62 -14.64,16.69 -16.18,26.11c-0.8,4.89 -0.15,8.89 1.62,11.75l13.77,-23.28l11,-4.14l3.84,8l-13.9,23.51c0.67,-0.19 1.35,-0.42 2.05,-0.68c12.25,-4.63 23.92,-18.95 26.05,-32c1.51,-9.55 -2.49,-15.73 -9.54,-16.55z"/>
     <path id="svg_96" fill="#3B28CC" opacity="0.2" d="m366.52,76.52l-19.9,126.93c-0.47,3 -2.91,6.27 -5.45,7.26s-4.22,-0.66 -3.74,-3.68l19.92,-127c0.47,-3 2.91,-6.26 5.44,-7.23s4.21,0.7 3.73,3.72z"/>
     <path id="svg_97" fill="#3B28CC" opacity="0.2" d="m344.34,201.6l19.9,-126.92a5,5 0 0 0 -0.07,-2.11a3.64,3.64 0 0 0 -1.38,0.26c-2.53,1 -5,4.21 -5.44,7.23l-19.92,126.94a5.11,5.11 0 0 0 0.06,2.09a3.73,3.73 0 0 0 1.4,-0.26c2.54,-0.96 4.98,-4.21 5.45,-7.23z"/>
     <polygon id="svg_98" fill="#3B28CC" opacity="0.2" points="338.9200134277344,231.97000122070312 341.25,231.08999633789062 345.0899963378906,239.1300048828125 331.19000244140625,262.6400146484375 326.7099914550781,259.0199890136719 340.6099853515625,235.510009765625 338.9200134277344,231.97000122070312 "/>
     <polygon id="svg_99" fill="#fff" opacity="0.2" points="388.1499938964844,23.850006103515625 374.3900146484375,47.1300048828125 363.4100036621094,51.279998779296875 374.94000244140625,47.94999694824219 388.1499938964844,23.850006103515625 "/>
     <polygon id="svg_100" fill="#fff" opacity="0.2" points="316.510009765625,258.510009765625 329.5400085449219,234.239990234375 341.25,231.08999633789062 330.2799987792969,235.23001098632812 316.510009765625,258.510009765625 "/>
     <path id="svg_101" fill="#c8856a" d="m306.48,73.64c5.47,11.71 7.86,16.49 7.86,16.49s21,9.58 21.53,9.75a7.5,7.5 0 0 0 4.18,0.36c2.32,-0.33 3.33,-0.36 4.58,0.15s5.26,2.14 6,3.15a21.36,21.36 0 0 1 2,3.93c0.68,1.44 0.67,2.09 -0.73,2.09c-1.73,0 -2.74,-1.47 -3.4,-2.67a5.9,5.9 0 0 0 -3.17,-0.86a5.51,5.51 0 0 1 -0.37,0.78l0,0a9.17,9.17 0 0 1 -1.34,1.77l-1.31,8.33a12.94,12.94 0 0 1 -5.26,-3c-1.34,-1.25 -1.66,-1.81 -5.52,-3.41c-1.19,-0.49 -12.44,-4.15 -21.06,-6.62c-6.58,-1.88 -6.79,-2.57 -9.92,-7.12c-4.87,-7.1 -10.45,-16.87 -10.45,-16.87l-0.81,-21.65c7.22,1.25 11.17,2.49 17.19,15.4z"/>
     <path id="svg_102" fill="#af6152" d="m343.6,108.59c-1.24,1.64 -4.11,2.44 -6.3,2.32a9.22,9.22 0 0 0 6,-0.54l0.3,-1.78z"/>
     <path id="svg_103" fill="#3B28CC" d="m299.64,92.23c0.64,6 2.48,31.14 2.48,31.14c-15.69,10.63 -53.57,1.63 -53.57,1.63c2.07,-9.68 7.5,-16.35 8,-23.13l-4.48,-18.77a38.42,38.42 0 0 0 5.7,-24.21l12.49,-1.89l11,-0.2l8,1.47a66.61,66.61 0 0 1 11.14,12.34c4.39,6.39 3.67,16.48 -0.76,21.62z"/>
     <g id="freepik--Head--inject-34">
      <path id="svg_104" fill="#37474f" d="m268.8,54.45c-1.69,-1.6 -4.3,-2.66 -8.25,-6.27c-5.51,-5 -10.94,-21.05 -2.65,-24.27c-0.36,-12.69 17,-16.74 24.68,-14.84c22.29,5.55 12.52,20.29 12.52,20.29l-26.3,25.09z"/>
      <path id="svg_105" fill="#c8856a" d="m291.46,20.85c2.83,2.45 4.3,5.41 4.92,18.11c0.48,9.91 -2.78,12.36 -5.92,13.88c-1.54,0.75 -4.52,1 -7.41,0.86l0.29,4.64s6.63,5.17 5.62,16.74c-19.81,-6.41 -21.37,-15.08 -21.37,-15.08l-1.26,-16.47c-0.54,1.06 -3.46,2.68 -6.1,-0.18c-3.1,-3.35 -2.82,-7.68 -0.46,-9.46s5.54,-0.54 6.92,2.29c2.78,0.9 4.72,-1.72 3.69,-12.11c5.84,-3.67 13.93,-6.32 21.08,-3.22z"/>
      <path id="svg_106" fill="#37474f" d="m291.26,16.82c1.55,4.46 0.57,12.06 -5.77,14.86c1.19,-3 0.69,-8.37 0.69,-8.37s-2.67,12.13 -17.14,10.05l-1.55,-11.9c6.09,-5.02 15.82,-9.17 23.77,-4.64z"/>
      <path id="svg_107" fill="#af6152" d="m283.05,53.7c-8.47,-1.11 -13.41,-4.11 -14.54,-7.4c0,0 0.89,4.36 3.39,6.11c3.5,2.45 11.3,3.59 11.3,3.59l-0.15,-2.3z"/>
      <path id="svg_108" fill="#af6152" d="m286.74,44.63l-6,-1.66a3,3 0 0 0 2,3.79a3.27,3.27 0 0 0 4,-2.13z"/>
      <path id="svg_109" fill="#ffa8a7" d="m284.13,46.83a3,3 0 0 1 -1.34,-0.07a2.92,2.92 0 0 1 -2.12,-2.33a3.58,3.58 0 0 1 3.46,2.4z"/>
      <path id="svg_110" fill="#263238" d="m277.8,34.84a1.68,1.68 0 0 0 1.82,1.53a1.68,1.68 0 1 0 -0.28,-3.34a1.67,1.67 0 0 0 -1.54,1.81z"/>
      <path id="svg_111" fill="#263238" d="m289.91,33.55a1.69,1.69 0 1 0 1.55,-1.81a1.68,1.68 0 0 0 -1.55,1.81z"/>
      <polygon id="svg_112" fill="#af6152" points="284.19000244140625,31.080001831054688 286.0199890136719,42.27000427246094 291.20001220703125,39.71000671386719 284.19000244140625,31.080001831054688 "/>
      <path id="svg_113" fill="#263238" d="m294.07,30.65l-4,-1a2,2 0 0 1 2.42,-1.49a2.14,2.14 0 0 1 1.58,2.49z"/>
      <path id="svg_114" fill="#263238" d="m275.6,31.41l3.67,-1.95a2,2 0 0 0 -2.75,-0.89a2.17,2.17 0 0 0 -0.92,2.84z"/>
      <path id="svg_115" fill="#af6152" d="m278.34,39.05c0,1.44 -1.55,2.64 -3.52,2.67s-3.58,-1.11 -3.6,-2.55s1.55,-2.64 3.52,-2.67s3.58,1.11 3.6,2.55z"/>
      <path id="svg_116" fill="#af6152" d="m299.36,35.58c0.46,1.37 -0.68,3 -2.54,3.61s-3.75,0 -4.21,-1.33s0.68,-3 2.54,-3.62s3.75,-0.03 4.21,1.34z"/>
     </g>
     <g id="freepik--Arm--inject-34">
      <path id="svg_117" fill="#af6152" d="m245.48,136.71c-2.64,0.66 -5.89,-2.7 -6.77,-3.87s0.39,-3.81 1,-6.07s0.18,-6.11 3,-4.94s8.43,8.95 2.77,14.88z"/>
      <path id="svg_118" fill="#c8856a" d="m258.1,58.8c-7.32,0.84 -10.75,2.48 -15,10.41c-5,9.24 -13,22 -14.27,26.09c-1.21,3.76 -3.47,6.39 0.5,12.29c3.62,5.4 15.1,19.62 16.79,21.71c1.49,1.84 0.47,7 -4.84,6c0,0 3.94,3.72 6.18,3.4c1.94,-0.29 5,-1.87 8,-7.62c1.88,-3.62 0.51,-6.56 -2,-10.75c-3,-5 -9.45,-18.87 -9.45,-18.87l12.99,-21.46s7.1,-14.52 1.1,-21.2z"/>
     </g>
    </g>
   </g>
  </g>
  <g id="freepik--character-1--inject-34">
   <g id="freepik--Chartacter--inject-34">
    <g id="freepik--bottom--inject-34">
     <path id="svg_119" fill="#b16668" d="m143.58,250.09l1.65,-13.61l-15.61,0.81s0.13,7.4 0.29,11.59c0.1,2.48 -3.3,7 -3.3,7s7.27,4 11.22,2.71s6.09,-6.18 6,-7.24s-0.25,-1.26 -0.25,-1.26z"/>
     <path id="svg_120" fill="#263238" d="m105.71,270.87c-0.25,0 -0.69,2.52 0.61,3.64c1.51,1.29 6,3.47 12,2.93s9.3,-2.17 11.76,-4s5.88,-4.34 8.61,-4.82c2.53,-0.44 5.29,-1.42 6.12,-2.13s0.81,-3.94 0.81,-3.94l-39.91,8.32z"/>
     <path id="svg_121" fill="#455a64" d="m143.59,250.06a1,1 0 0 1 0.88,0.79c0.16,0.9 0.28,3.49 0.63,5a24.43,24.43 0 0 1 0.35,7.87c-0.38,1.65 -4.51,2.68 -7.16,3.53a33.84,33.84 0 0 0 -8.64,4.75c-2.87,2.09 -8.86,4.16 -12.76,4c-4.62,-0.17 -9.77,-1.73 -10.9,-3.77c-1.4,-2.52 -2.39,-5.43 4.55,-8.19c1.31,-0.52 5.93,-2.9 7.51,-3.77c4.27,-2.34 7.29,-4.51 9.35,-8.83a2.54,2.54 0 0 1 1,-1.31a2.4,2.4 0 0 1 1.33,-0.07a47.55,47.55 0 0 1 6.69,1.41c0.91,0.44 2.2,1 2.15,2.06a3.64,3.64 0 0 1 -0.29,1.11c-0.09,0.22 -0.17,0.52 0,0.65s0.46,0 0.64,-0.14a15.86,15.86 0 0 0 1.91,-2a7.14,7.14 0 0 1 1.12,-1a12.55,12.55 0 0 0 1.19,-0.67c0.5,-0.42 0.41,-0.9 0.45,-1.42z"/>
     <path id="svg_122" fill="#37474f" d="m129.65,272c1.22,-0.88 2.52,-1.73 3.81,-2.49l0,0s-8.18,4.33 -11.37,2.15c-2.06,-1.41 -1,-3 -1,-3.52s-7.22,-4.42 -9.24,-4.71l0,0c-0.58,0.28 -1.06,0.5 -1.36,0.62c-6.94,2.76 -5.95,5.67 -4.55,8.19c1.13,2 4.85,3.72 10.81,3.9c3.96,0.09 10.03,-2.08 12.9,-4.14z"/>
     <path id="svg_123" fill="#37474f" d="m121.75,266.61c-4.3,1.46 -2.51,2.26 -1.32,2.46s8.47,-3.5 12.93,-6.6c4.66,-3.23 7.65,-6.83 9.38,-8c0.64,-0.44 1.34,-1 2,-1.5c-0.09,-0.88 -0.16,-1.68 -0.23,-2.1a1,1 0 0 0 -0.88,-0.79c0,0.52 0,1 -0.38,1.38a12.55,12.55 0 0 1 -1.19,0.67a7.14,7.14 0 0 0 -1.12,1a15.86,15.86 0 0 1 -1.91,2c-3.88,4.3 -12.97,10.02 -17.28,11.48z"/>
     <path id="svg_124" fill="#263238" d="m120.75,268.49a0.45,0.45 0 0 0 0.27,-0.08a0.37,0.37 0 0 0 0.07,-0.55c-1.16,-1.42 -6.75,-4.86 -9.89,-4.63a0.4,0.4 0 0 0 -0.39,0.42a0.41,0.41 0 0 0 0.46,0.36c2.93,-0.2 8.24,3.21 9.16,4.33a0.44,0.44 0 0 0 0.32,0.15z"/>
     <path id="svg_125" fill="#263238" d="m124.53,266.47a0.42,0.42 0 0 0 0.26,-0.08a0.38,0.38 0 0 0 0.08,-0.56c-1.16,-1.41 -6.75,-4.85 -9.89,-4.62a0.39,0.39 0 0 0 -0.39,0.42a0.4,0.4 0 0 0 0.45,0.36c2.94,-0.2 8.24,3.2 9.16,4.32a0.46,0.46 0 0 0 0.33,0.16z"/>
     <path id="svg_126" fill="#263238" d="m128.3,264.56a0.45,0.45 0 0 0 0.27,-0.08a0.38,0.38 0 0 0 0.08,-0.55c-1.17,-1.42 -6.76,-4.86 -9.9,-4.63a0.4,0.4 0 0 0 -0.39,0.42a0.41,0.41 0 0 0 0.46,0.36c2.93,-0.2 8.24,3.2 9.16,4.32a0.45,0.45 0 0 0 0.32,0.16z"/>
     <path id="svg_127" fill="#263238" d="m131.81,262.35a0.39,0.39 0 0 0 0.27,-0.08a0.37,0.37 0 0 0 0.07,-0.55c-1.15,-1.41 -6.76,-4.85 -9.89,-4.63a0.41,0.41 0 0 0 -0.39,0.42a0.43,0.43 0 0 0 0.46,0.37c2.93,-0.2 8.24,3.2 9.16,4.32a0.41,0.41 0 0 0 0.32,0.15z"/>
     <path id="svg_128" fill="#263238" d="m135.25,260.14a0.41,0.41 0 0 0 0.26,-0.07a0.37,0.37 0 0 0 0.09,-0.55c-1.59,-2 -7.47,-4.92 -10.61,-4.7a0.4,0.4 0 0 0 -0.39,0.43a0.42,0.42 0 0 0 0.45,0.36c2.83,-0.2 8.46,2.6 9.87,4.37a0.41,0.41 0 0 0 0.33,0.16z"/>
     <path id="svg_129" fill="#b16668" d="m176.91,257.85l-3.4,-13l16,-2.25l0.54,12.55s1.64,4.5 0.64,6.13s-11.61,3.36 -12.58,2.27s-1.2,-5.7 -1.2,-5.7z"/>
     <path id="svg_130" fill="#263238" d="m178.16,286.13c0.46,4 1.3,6.62 3,8.8s4.84,2.55 7.9,1.47s7,-3.42 7.67,-7a19.81,19.81 0 0 0 -0.47,-9.65l-18.1,6.38z"/>
     <path id="svg_131" fill="#455a64" d="m190,255.15c1.28,-0.07 1,5.44 2,10.8c1.08,5.75 3.16,7.92 4.1,12.62c1.08,5.38 0.87,7.86 -1.13,11.44s-9.5,7.75 -13.5,3.48c-3.27,-3.49 -3.6,-7.76 -3.59,-13.26a123.93,123.93 0 0 0 -0.4,-13.94c-0.45,-4.06 -1.63,-7.68 -0.55,-8.28c0.12,0.6 0.24,1.35 0.36,1.93s0.33,2.65 1,2.58a7.32,7.32 0 0 0 -0.06,-1.55a1.71,1.71 0 0 1 0.29,-1.36a5.9,5.9 0 0 1 2.06,-1.05c1.24,-0.37 3.47,-0.84 4.74,-1.1c0.64,-0.13 1.27,-0.23 1.91,-0.3a5.56,5.56 0 0 1 1.63,0a1,1 0 0 1 0.72,0.47a1.62,1.62 0 0 1 0.1,0.62a3.7,3.7 0 0 0 0.21,1.1c0.06,0.16 0.19,0.34 0.37,0.28a0.34,0.34 0 0 0 0.19,-0.36c0,-0.66 -0.14,-1.12 -0.21,-1.89c0,-0.35 -0.13,-0.83 -0.15,-1.18s-0.02,-0.7 -0.09,-1.05z"/>
     <path id="svg_132" fill="#37474f" d="m195.72,277.05c0.16,0.78 1.17,5.91 -0.39,7.05s-2.84,-2.76 -2.84,-2.76s-4.13,-0.61 -10,2.42c0.34,0.81 -0.43,3.72 -2.09,3.33s-2.58,-6.31 -2.59,-6.38c0,5.27 0.42,9.39 3.59,12.78c4,4.27 11.5,0.09 13.5,-3.48s2.21,-6.06 1.13,-11.44c-0.03,-0.57 -0.18,-1.04 -0.31,-1.52z"/>
     <path id="svg_133" fill="#37474f" d="m192,281.75c0.12,2 2.29,1 2.25,-1.77s-2.09,-9.22 -2.31,-14c-0.37,-6.6 -0.68,-10.87 -2,-10.8c0,0.07 0,0.13 0,0.2l0.3,2.75a8.91,8.91 0 0 1 0.13,1.17c0.23,4 0.29,11.87 0.86,15.51a56.67,56.67 0 0 1 0.77,6.94z"/>
     <path id="svg_134" fill="#37474f" d="m183.22,283.62a55.82,55.82 0 0 1 -1.55,-6.79c-0.62,-3.6 -2.78,-10.81 -3.85,-14.69a8.73,8.73 0 0 1 -0.55,-2.2c-0.11,-0.54 -0.23,-1.23 -0.33,-1.8l0,-0.12c-0.79,0.44 -0.52,3.56 -0.1,5.18s0.92,3.35 1.44,5.67c1.32,4.57 1.45,11.44 2.31,14.07s3.15,2.57 2.63,0.68z"/>
     <path id="svg_135" fill="#263238" d="m182.42,283.94l0.17,-0.07a17.45,17.45 0 0 1 9.79,-2.11a0.53,0.53 0 0 0 0.57,-0.37a0.39,0.39 0 0 0 -0.36,-0.47a18.36,18.36 0 0 0 -10.48,2.26a0.42,0.42 0 0 0 -0.17,0.59a0.45,0.45 0 0 0 0.48,0.17z"/>
     <path id="svg_136" fill="#263238" d="m181.14,279.77l0.16,0a21.56,21.56 0 0 1 11,-2.36a0.53,0.53 0 0 0 0.56,-0.39a0.39,0.39 0 0 0 -0.38,-0.46a22.45,22.45 0 0 0 -11.59,2.5a0.42,0.42 0 0 0 -0.19,0.59a0.43,0.43 0 0 0 0.44,0.12z"/>
     <path id="svg_137" fill="#263238" d="m191.76,273.32a0.53,0.53 0 0 0 0.38,-0.33a0.38,0.38 0 0 0 -0.32,-0.5c-5.81,-1 -11.34,2.26 -11.57,2.4a0.42,0.42 0 0 0 -0.18,0.59a0.5,0.5 0 0 0 0.65,0.1c0.05,0 5.43,-3.21 10.83,-2.26a0.5,0.5 0 0 0 0.21,0z"/>
     <path id="svg_138" fill="#263238" d="m191.24,269.51a0.5,0.5 0 0 0 0.38,-0.32a0.37,0.37 0 0 0 -0.31,-0.5a17,17 0 0 0 -11.81,2.39a0.42,0.42 0 0 0 -0.13,0.6a0.5,0.5 0 0 0 0.66,0.06a16.09,16.09 0 0 1 11,-2.22a0.5,0.5 0 0 0 0.21,-0.01z"/>
     <path id="svg_139" fill="#263238" d="m190.64,265.24a0.54,0.54 0 0 0 0.38,-0.32a0.38,0.38 0 0 0 -0.3,-0.51c-6,-1.23 -11.65,2.37 -11.89,2.53a0.41,0.41 0 0 0 -0.15,0.59a0.5,0.5 0 0 0 0.66,0.08s5.51,-3.52 11.08,-2.37a0.41,0.41 0 0 0 0.22,0z"/>
     <path id="svg_140" fill="#37474f" d="m181.15,115c0.69,33 4.32,79.14 4.32,79.14c0.24,2.53 2,6.87 3.24,19.38c1.31,13.2 1.09,31.84 1.09,31.84s-8.84,5 -16.14,2.5c0,0 -6.88,-29.28 -10.68,-44.82c-3.59,-14.71 -8.63,-37.12 -8.63,-37.12l-4.26,22.16s0.53,9.52 0.28,16.18c-0.29,7.75 -5,37.41 -5,37.41s-8.72,5.7 -16.31,-0.22c0,0 -1.68,-43.48 -1.93,-52.8c-0.48,-18.28 -0.22,-51.92 0.54,-76.4l53.48,2.75z"/>
     <path id="svg_141" fill="#263238" d="m154.35,165.94l-3.84,-23.76s-8.84,-1.28 -13.38,-5.43c0,0 2.94,5.5 11.28,7.63l3.81,21.62l-2.13,22.1l4.26,-22.16z"/>
     <path id="svg_142" fill="#455a64" d="m190,245.75c-1.83,2.49 -9.93,5 -16.47,2.76l-1.15,-5.14c4.93,1.58 13.49,0 17.5,-3.22l0.12,5.6z"/>
     <path id="svg_143" fill="#455a64" d="m145.38,242.48c-2.22,2.13 -10.42,3.21 -16.48,-0.17l-0.27,-5.26c4.59,2.43 13,2.54 17.53,0l-0.78,5.43z"/>
    </g>
    <g id="freepik--top--inject-34">
     <path id="svg_144" fill="#ffa8a7" d="m98,230.83l-5.36,31.1a1,1 0 0 1 -1.8,0.29l-14.86,-28l22.02,-3.39z"/>
     <path id="svg_145" fill="#3B28CC" d="m90.84,262.22a1,1 0 0 0 1.8,-0.29l1.05,-6.07l0,0a5.36,5.36 0 0 1 -5.54,0.6l-0.49,-0.23l3.18,5.99z"/>
     <path id="svg_146" opacity="0.2" d="m90.84,262.22a1,1 0 0 0 1.8,-0.29l1.05,-6.07l0,0a5.36,5.36 0 0 1 -5.54,0.6l-0.49,-0.23l3.18,5.99z"/>
     <path id="svg_147" fill="#3B28CC" d="m46.33,48.71l0.46,2.89l0.55,3.47l28.66,179.15a14.22,14.22 0 0 0 10,2.79c5.4,-0.32 10.57,-2.95 12.05,-6.18l-28.69,-179.07l-1.06,-6.64c0.45,4.34 -21.46,7.94 -21.97,3.59z"/>
     <path id="svg_148" fill="#fff" opacity="0.5" d="m46.33,48.71l0.46,2.89l0.55,3.47l28.66,179.15a14.22,14.22 0 0 0 10,2.79c5.4,-0.32 10.57,-2.95 12.05,-6.18l-28.69,-179.07l-1.06,-6.64c0.45,4.34 -21.46,7.94 -21.97,3.59z"/>
     <path id="svg_149" fill="#ebebeb" d="m48.05,59.69l1,6.43c0.24,1.87 4.44,2.42 9.12,2.08c6.23,-0.44 13.17,-3.28 12.86,-5.76l-0.76,-4.75l-0.27,-1.69c0.31,2.49 -6.64,5.33 -12.86,5.77c-4.49,0.32 -8.55,-0.18 -9.05,-1.88l0,0a0.37,0.37 0 0 1 -0.04,-0.2z"/>
     <path id="svg_150" fill="#3B28CC" d="m48.32,61.29c0.55,4.35 22.52,0.67 22,-3.68l-1,-6.44c0.54,4.35 -21.42,8 -22,3.68l1,6.44z"/>
     <path id="svg_151" fill="#ebebeb" d="m46.33,48.71l1,6.36c0.5,4.28 21.73,0.91 22,-3.31a0.65,0.65 0 0 0 0,-0.24l-1.06,-6.4c0.48,4.34 -21.43,7.94 -21.94,3.59z"/>
     <path id="svg_152" opacity="0.1" d="m69.36,51.76l-1.06,-6.64c0.2,2 -4,4.15 -9,5.15l29.81,186.32l3.52,25.34l5.36,-31.1l0,0l-28.63,-179.07z"/>
     <path id="svg_153" fill="#f28f8f" d="m63.89,17.61a1.77,1.77 0 0 0 0,-0.23c-0.45,-2.79 -5.74,-4.24 -11.81,-3.24s-10.6,4.07 -10.16,6.86l0,0l4.42,27.71c0.22,1.86 4.37,2.42 9,2.11c6.22,-0.42 13.21,-3.23 12.94,-5.71c0,0 0,0 0,0l-4.28,-27.11c0,-0.12 0,-0.24 -0.07,-0.36s-0.03,-0.02 -0.04,-0.03z"/>
     <path id="svg_154" opacity="0.1" d="m53.38,14l5.92,36.31c4.89,-1 9.2,-3.19 9,-5.15c0,0 0,0 0,0l-4.3,-27.16c0,-0.12 0,-0.24 -0.07,-0.36s0,0 0,0a1.77,1.77 0 0 0 0,-0.23c-0.47,-2.62 -5.05,-4.05 -10.55,-3.41z"/>
     <path id="svg_155" fill="#ffa8a7" d="m63.88,17.38c0.46,2.8 -4.09,5.87 -10.16,6.87s-11.35,-0.45 -11.81,-3.25s4.09,-5.87 10.16,-6.87s11.36,0.46 11.81,3.25z"/>
     <path id="svg_156" fill="#b16668" d="m119.23,66.86c-7.54,10.95 -10.49,15.77 -10.49,15.77s-22.44,7.55 -23.07,7.68a8.45,8.45 0 0 1 -3.09,0.19a7.76,7.76 0 0 1 -3.25,-1.91l-6,-4.87a1.35,1.35 0 0 0 -1.16,-0.42a1.11,1.11 0 0 0 -0.59,1c-0.16,2 1.36,3.66 2.12,5.5c1.19,2.88 1.12,6 3.12,8.53l1.39,8.69a12.9,12.9 0 0 0 4.78,-2.48c1.51,-1.14 1.9,-1.67 6,-2.89c1.27,-0.38 13.16,-2.92 22.24,-4.53c6.94,-1.22 7.77,-1.9 11.45,-6.22c5.74,-6.75 11.95,-15.08 11.95,-15.08l2.78,-23.65c-7.65,1.71 -9.54,2.13 -18.18,14.69z"/>
     <path id="svg_157" fill="#37474f" d="m137.07,52.13c-6.67,1.2 -8.17,1.56 -12.54,6.67s-13,17.87 -13,17.87a21.57,21.57 0 0 0 7.3,7.58a31.74,31.74 0 0 0 7.17,3.34l11.68,-13.79l-0.61,-21.67z"/>
     <path id="svg_158" fill="#9a4a4d" d="m76.81,98.36c1.08,1.81 4,3 6.23,3.07a9,9 0 0 1 -5.88,-1.06l-0.35,-2.01z"/>
     <g id="freepik--Chest--inject-34">
      <path fill="#455a64" d="m166.19,49.9c8.44,2.08 11,3 15,4c0,0 6.95,7.46 1.37,34.92c-0.71,3.52 -1.24,14 -1.27,22.64c0,6.13 0.22,10.16 0.45,14.43c0,0 -11.44,8.05 -35.1,5.22c-18.57,-2.22 -19.72,-9.39 -19.72,-9.39s-0.13,-23.25 0.91,-37.41c1.38,-18.6 7.15,-29.65 9.28,-32.16c0.67,-0.38 13.32,-2.17 13.32,-2.17l15.76,-0.08z" id="freepik--chest--inject-34"/>
     </g>
     <g id="freepik--arm--inject-34">
      <path id="svg_159" fill="#9a4a4d" d="m190.27,135.12c2.67,0.88 6.27,-2.34 7.27,-3.48s-0.12,-4 -0.6,-6.33s0.28,-6.31 -2.69,-5.31s-9.36,8.58 -3.98,15.12z"/>
      <path id="svg_160" fill="#b16668" d="m181.34,54.56c6.68,1.24 10.14,2.22 14.71,11.17c4.94,9.65 13.48,23.72 14.52,28c1,4 3.09,6.85 -1.44,12.63c-4.14,5.29 -17,19.07 -18.93,21.1c-1.67,1.79 -1,7.13 4.54,6.56c0,0 -4.34,3.54 -6.63,3c-2,-0.44 -5,-2.3 -7.65,-8.44c-1.66,-3.88 0,-6.8 2.9,-10.93c3.49,-4.92 11.15,-18.73 11.15,-18.73l-13.41,-21.52s-6.44,-16.4 0.24,-22.84z"/>
     </g>
     <path id="svg_161" fill="#37474f" d="m191.3,92.09a21.9,21.9 0 0 0 6.7,-2.09a27.73,27.73 0 0 0 6.9,-5.24c0.49,-0.5 1,-1 1.41,-1.56c-2.67,-5.06 -6,-10.89 -9.19,-16.62c-6.11,-10.87 -9.13,-11.09 -16.21,-12.68c-7.09,4.58 -3.13,21.39 0.12,26.06c1.79,2.57 5.5,8 8.47,12.39q0.9,-0.11 1.8,-0.26z"/>
     <g id="freepik--head--inject-34">
      <path id="svg_162" fill="#263238" d="m172.27,14.22s3,0.5 4.64,4.28c0.84,1.9 1.27,5.26 -2.23,14.43a36.62,36.62 0 0 1 -5.64,9.95a4.82,4.82 0 0 1 -3,1.89l0.81,-7.22l0.71,-5s-4.2,-1.53 -4.82,-7.36c-0.49,-4.68 1.55,-6.41 1.55,-6.41l7.98,-4.56z"/>
      <path id="svg_163" fill="#263238" d="m173.52,15.92c3.06,-7.13 -12.08,-17.75 -20.74,-12.85c-2.76,-4.07 -9.75,-2.56 -10.56,1.5c-2.44,-1.26 -6.22,2.26 -5.19,5.34c-1.85,-0.74 -5.12,2 -3.34,4.69c1.29,2 0.74,4.39 -1.46,3.73c0.09,2.66 4.09,2.8 4.92,0.83c-0.64,1.52 1.54,3.2 2.79,2.29c8.1,0.2 16.78,-0.11 24.94,0.55l8.64,-6.08z"/>
      <path id="svg_164" fill="#b16668" d="m143,13.57c-2.9,2.45 -4.43,5.44 -5.24,18.31c-0.63,10.05 2.64,12.58 5.81,14.18c1.55,0.78 4.57,1.05 7.51,1l-0.36,4.7c-7.86,7 12,10.46 17.39,1.21l1.27,-15.47c0.53,1.08 3.32,1.86 5.47,-0.12c3.4,-3.15 2.92,-7.87 0.54,-9.71s-6,-1.58 -7.46,1.86c-2.84,0.88 -4.77,-1.81 -3.58,-12.33c-11.46,2.41 -14.07,-6.67 -21.35,-3.63z"/>
      <path id="svg_165" fill="#9a4a4d" d="m151.05,47c8.61,-1 13.67,-4 14.86,-7.31c0,0 -1,4.41 -3.52,6.16c-3.59,2.44 -11.52,3.48 -11.52,3.48l0.18,-2.33z"/>
      <path id="svg_166" fill="#9a4a4d" d="m147.43,37.78l6.1,-1.6a3,3 0 0 1 -2.12,3.82a3.33,3.33 0 0 1 -3.98,-2.22z"/>
      <path id="svg_167" fill="#ffa8a7" d="m150.05,40.05a3.29,3.29 0 0 0 1.36,-0.05a3,3 0 0 0 2.19,-2.34a3.64,3.64 0 0 0 -3.55,2.39z"/>
      <path id="svg_168" fill="#263238" d="m156.9,27.24a1.71,1.71 0 1 1 -1.49,-1.9a1.7,1.7 0 0 1 1.49,1.9z"/>
      <path id="svg_169" fill="#263238" d="m144.65,25.71a1.72,1.72 0 1 1 -1.49,-1.9a1.73,1.73 0 0 1 1.49,1.9z"/>
      <path id="svg_170" fill="#9a4a4d" d="m150.87,23.83l-3,10.44l-4.8,-2.55c2.42,-4.72 5.26,-7.09 7.8,-7.89z"/>
      <path id="svg_171" fill="#263238" d="m140.56,22.59l4.07,-0.86a2,2 0 0 0 -2.4,-1.62a2.17,2.17 0 0 0 -1.67,2.48z"/>
      <path id="svg_172" fill="#263238" d="m159.25,24.16l-3.63,-2.16a2,2 0 0 1 2.82,-0.79a2.2,2.2 0 0 1 0.81,2.95z"/>
      <path id="svg_173" fill="#9a4a4d" d="m156.92,31.73c0,0.8 0.84,1.48 1.93,1.51s2,-0.59 2,-1.39s-0.84,-1.48 -1.94,-1.52s-1.97,0.59 -1.99,1.4z"/>
      <path id="svg_174" fill="#9a4a4d" d="m136.43,29.49c-0.23,0.77 0.44,1.64 1.5,1.95a1.78,1.78 0 0 0 2.31,-0.84c0.22,-0.77 -0.45,-1.65 -1.5,-1.95a1.78,1.78 0 0 0 -2.31,0.84z"/>
     </g>
    </g>
   </g>
  </g>
 </g>
</svg>